# xmcd
#
# Track frame offsets:
#	150
#	20757
#	36381
#	49581
#	63185
#	80092
#	96597
#	112141
#	126633
#	145763
#
# Disc length: 2168 seconds
#
# Revision: 0
# Processed by: cddbd v1.4PL0 Copyright (c) Steve Scherf et al.
# Submitted via: EasyCDDAExtractor 4.5.0.2
#
DISCID=9808760a
DTITLE=Frazier River
DYEAR=1900
DGENRE=Country
TTITLE0=Everything About You
TTITLE1=That's Why I'm Here
TTITLE2=Money Don't Make People
TTITLE3=She Got What She Deserves
TTITLE4=Last Request
TTITLE5=I Don't Want To See You Again
TTITLE6=Tangled Up In Texas
TTITLE7=Birminghmam Steel
TTITLE8=Heaven Is Smiling
TTITLE9=It Won't Bring Her Back
EXTD=
EXTT0=
EXTT1=
EXTT2=
EXTT3=
EXTT4=
EXTT5=
EXTT6=
EXTT7=
EXTT8=
EXTT9=
PLAYORDER=
